# xmcd
#
# Track frame offsets:
#	150
#	12382
#	26853
#	39001
#	52767
#	68934
#	82269
#	92450
#	104808
#	116353
#
# Disc length: 1752 seconds
#
# Revision: 1
# Processed by: cddbd v1.5.2PL0 Copyright (c) Steve Scherf et al.
# Submitted via: EasyCDDAExtractor 7.0.3.1
#
DISCID=7a06d60a
DTITLE=Morgan Blanchard - Christmas
DYEAR=1900
DGENRE=Cajun
TTITLE0=White Christmas
TTITLE1=Christmas in Dixie
TTITLE2=Jingle Bells
TTITLE3=Blue Christmas
TTITLE4=Santa Looked A Lot Like Daddy
TTITLE5=Please Come Home For Christmas 
TTITLE6=Rudolph The Red Nosed Reindeer 
TTITLE7=I Saw Mama Kissing Santa Claus 
TTITLE8=Frosty the Snowman
TTITLE9=Silent Night 
EXTD=
EXTT0=
EXTT1=
EXTT2=
EXTT3=
EXTT4=
EXTT5=
EXTT6=
EXTT7=
EXTT8=
EXTT9=
PLAYORDER=
